<?xml version="1.0" encoding="UTF-8" standalone="no"?>
<svg
   version="1.1"
   viewBox="0 0 1280 720"
   id="svg103"
   sodipodi:docname="enemy.svg"
   inkscape:version="1.4.2 (f4327f4, 2025-05-13)"
   xmlns:inkscape="http://www.inkscape.org/namespaces/inkscape"
   xmlns:sodipodi="http://sodipodi.sourceforge.net/DTD/sodipodi-0.dtd"
   xmlns="http://www.w3.org/2000/svg"
   xmlns:svg="http://www.w3.org/2000/svg">
  <defs
     id="defs103" />
  <sodipodi:namedview
     id="namedview103"
     pagecolor="#ffffff"
     bordercolor="#000000"
     borderopacity="0.25"
     inkscape:showpageshadow="2"
     inkscape:pageopacity="0.0"
     inkscape:pagecheckerboard="0"
     inkscape:deskcolor="#d1d1d1"
     inkscape:zoom="1.1208333"
     inkscape:cx="712.41636"
     inkscape:cy="360"
     inkscape:window-width="1920"
     inkscape:window-height="1009"
     inkscape:window-x="-8"
     inkscape:window-y="-8"
     inkscape:window-maximized="1"
     inkscape:current-layer="b" />
  <g
     id="b"
     transform="matrix(1.3589401,0,0,1.1260921,-124.97995,-10.270723)">
    <path
       d="m 725.21,121.27 c -1.586,0.736 -3.888,1.404 -5.286,2.454 -1.669,1.255 -3.608,3.412 -4.53,5.286 -0.996,2.023 -1.545,5.108 -1.51,7.362 0.04,2.623 0.921,6.139 2.076,8.494 1.612,3.289 5.15,6.85 7.74,9.439 2.241,2.241 5.935,4.454 8.15,6.721 2.806,2.873 6.702,6.85 8.22,10.569 1.607,3.938 1.651,9.839 1.565,14.092 -0.216,10.732 -3.097,24.972 -6.263,35.229 -2.134,6.915 -6.786,15.464 -9.695,22.092 2.692,1.984 8.973,6.612 8.974,6.613 6.943,-5.526 16.555,-12.476 23.144,-18.421 9.671,-8.726 22.633,-20.589 30.228,-31.173 5.691,-7.93 11.948,-19.579 15.114,-28.811 3.793,-11.058 6.031,-26.72 6.672,-38.392 0.476,-8.666 -0.157,-20.327 -1.605,-28.884 -1.181,-6.987 -3.871,-16.12 -6.418,-22.733 -2.344,-6.087 -6.371,-13.843 -9.624,-19.498 -2.714,-4.718 -6.464,-11 -9.994,-15.143 -2.46,-2.888 -6.167,-6.406 -9.238,-8.632 -2.733,-1.981 -6.623,-4.44 -9.843,-5.452 -4.309,-1.353 -10.498,-1.808 -14.992,-1.362 -2.248,0.223 -5.229,0.998 -7.269,1.968 -3.487,1.659 -8.007,4.614 -10.298,7.723 -1.331,1.807 -1.804,4.92 -2.725,6.966 -0.901,2.001 -1.826,4.916 -3.332,6.512 -1.272,1.349 -3.804,2.084 -5.3,3.18 -2.415,1.769 -5.888,4.103 -7.416,6.677 -1.531,2.578 -2.244,6.726 -2.315,9.723 -0.049,2.044 0.671,4.729 1.157,6.714 1.149,4.694 3.486,10.724 5.093,15.28 2.708,7.676 9.519,25.404 9.52,25.407 z"
       fill="#bde471"
       fill-rule="evenodd"
       id="path1" />
    <path
       d="m 734.65,249.62 v 0 c -10e-4,-0.001 -6.282,-4.629 -8.974,-6.613 2.909,-6.628 7.561,-15.177 9.695,-22.092 3.166,-10.257 6.047,-24.497 6.263,-35.229 0.086,-4.253 0.042,-10.154 -1.565,-14.092 -1.518,-3.719 -5.414,-7.696 -8.22,-10.569 -2.215,-2.267 -5.909,-4.48 -8.15,-6.721 -2.59,-2.589 -6.128,-6.15 -7.74,-9.439 -1.155,-2.355 -2.036,-5.871 -2.076,-8.494 -0.035,-2.254 0.514,-5.339 1.51,-7.362 0.922,-1.874 2.861,-4.031 4.53,-5.286 1.398,-1.05 3.7,-1.718 5.286,-2.454 v 0 c -10e-4,-0.003 -6.812,-17.731 -9.52,-25.407 -1.607,-4.556 -3.944,-10.586 -5.093,-15.28 -0.486,-1.985 -1.206,-4.67 -1.157,-6.714 0.071,-2.997 0.784,-7.145 2.315,-9.723 1.528,-2.574 5.001,-4.908 7.416,-6.677 1.496,-1.096 4.028,-1.831 5.3,-3.18 1.506,-1.596 2.431,-4.511 3.332,-6.512 0.921,-2.046 1.394,-5.159 2.725,-6.966 2.291,-3.109 6.811,-6.064 10.298,-7.723 2.04,-0.97 5.021,-1.745 7.269,-1.968 4.494,-0.446 10.683,0.009 14.992,1.362 3.22,1.012 7.11,3.471 9.843,5.452 3.071,2.226 6.778,5.744 9.238,8.632 3.53,4.143 7.28,10.425 9.994,15.143 3.253,5.655 7.28,13.411 9.624,19.498 2.547,6.613 5.237,15.746 6.418,22.733 1.448,8.557 2.081,20.218 1.605,28.884 -0.641,11.672 -2.879,27.334 -6.672,38.392 -3.166,9.232 -9.423,20.881 -15.114,28.811 -7.595,10.584 -20.557,22.447 -30.228,31.173 -6.589,5.945 -16.201,12.895 -23.144,18.421 m -8.974,-6.613 v 0 m -0.467,-121.74 v 0"
       fill="none"
       stroke="#dd5d06"
       stroke-linecap="round"
       stroke-linejoin="round"
       stroke-opacity="0"
       stroke-width="10"
       id="path2" />
    <path
       d="m 774.52,172.56 c 0.003,-16.321 -1.507,-31.6 -5.955,-47.301 l 4.635,-1.31 c 4.543,16.104 6.133,32.057 6.136,48.611 z"
       fill="#7cac2f"
       id="path3" />
    <path
       d="m 768.57,125.26 c -1.959,-7.079 -6.904,-18.818 -6.92,-26.447 h 0.482 c -0.016,7.46 8.799,17.238 11.073,25.137 z"
       fill="#7cac2f"
       id="path4" />
    <path
       d="m 768.57,125.26 4.635,-1.31"
       fill="none"
       stroke="#7cac2f"
       stroke-linecap="butt"
       stroke-linejoin="round"
       id="path5" />
    <path
       d="m 774.5,142.36 c 0.137,-1.836 2.168,-4.435 2.54,-5.464 l 2.245,0.872 c -0.602,1.477 -2.513,3.871 -2.376,4.592 z"
       fill="#7cac2f"
       id="path6" />
    <path
       d="m 777.04,136.9 c 1.925,-4.955 4.703,-9.223 7.008,-14.013 l 0.217,0.105 c -2.301,4.78 -3.052,9.816 -4.98,14.78 z"
       fill="#7cac2f"
       id="path7" />
    <path
       d="m 777.04,136.9 2.245,0.872"
       fill="none"
       stroke="#7cac2f"
       stroke-linecap="butt"
       stroke-linejoin="round"
       id="path8" />
    <path
       d="m 771.54,130.35 c 0.197,-0.463 -2.045,-2.784 -2.76,-3.697 l 1.902,-1.477 c 0.594,0.77 3.069,3.39 3.266,5.174 z"
       fill="#7cac2f"
       id="path9" />
    <path
       d="m 771.54,130.35 h 2.408"
       fill="none"
       stroke="#7cac2f"
       stroke-linecap="butt"
       stroke-linejoin="round"
       id="path10" />
    <path
       d="m 768.78,126.65 c -2.971,-3.847 -9.765,-10.725 -15.016,-10.714 v -0.24 c 5.354,0.011 13.701,5.358 16.918,9.477 z"
       fill="#7cac2f"
       id="path11" />
    <path
       d="m 768.78,126.65 1.902,-1.477"
       fill="none"
       stroke="#7cac2f"
       stroke-linecap="butt"
       stroke-linejoin="round"
       id="path12" />
    <path
       d="m 888.54,99.625 c 0.583,2.203 0.152,5.315 0.217,7.593 0.001,0 7.98,-0.329 11.28,0.434 6.098,1.41 13.937,5.044 18.872,8.893 3.751,2.927 7.984,7.935 10.195,12.148 1.636,3.119 2.812,7.785 3.254,11.28 0.612,4.846 0.266,11.471 -0.651,16.269 -0.561,2.936 -2.033,6.681 -3.173,9.445 -0.631,1.532 -1.457,3.612 -2.405,4.971 -0.72,1.033 -2.021,2.133 -2.887,3.047 0,10e-4 0.987,2.768 1.123,4.01 0.268,2.446 0.015,5.807 -0.642,8.179 -0.82,2.965 -2.754,6.718 -4.65,9.141 -2.449,3.128 -6.628,6.635 -10.103,8.561 -2.996,1.662 -7.513,2.795 -10.857,3.541 -2.717,0.606 -6.425,1.031 -9.205,1.18 -7.923,0.427 -18.503,-1.196 -26.434,-0.944 -11.528,0.367 -26.91,1.829 -38.236,4.012 -10.257,1.977 -23.548,6.314 -33.515,9.441 -9.358,2.937 -21.955,6.66 -30.896,10.691 -7.405,3.338 -16.534,9.263 -23.62,13.233 0,0 -4.573,-4.221 -6.533,-6.03 8.853,-16.516 19.851,-38.995 29.51,-55.053 10.117,-16.818 24.119,-39.061 36.48,-54.305 7.036,-8.677 17.097,-19.821 25.702,-26.945 6.642,-5.499 16.196,-12.177 24.043,-15.752 4.379,-1.996 10.564,-4.275 15.365,-4.61 4.398,-0.307 10.468,0.465 14.534,2.169 2.665,1.117 5.883,3.486 7.809,5.64 2.233,2.497 4.567,6.523 5.423,9.761 m -158.87,139.1 z"
       fill="#92c73b"
       fill-rule="evenodd"
       id="path13" />
    <path
       d="m 888.76,107.22 v 0 c -0.065,-2.278 0.366,-5.39 -0.217,-7.593 -0.856,-3.238 -3.19,-7.264 -5.423,-9.761 -1.926,-2.154 -5.144,-4.523 -7.809,-5.64 -4.066,-1.704 -10.136,-2.476 -14.534,-2.169 -4.801,0.335 -10.986,2.614 -15.365,4.61 -7.847,3.575 -17.401,10.253 -24.043,15.752 -8.605,7.124 -18.666,18.268 -25.702,26.945 -12.361,15.244 -26.363,37.487 -36.48,54.305 -9.659,16.058 -20.657,38.537 -29.51,55.053 v 0 c 1.96,1.809 6.533,6.03 6.533,6.03 v 0 c 7.086,-3.97 16.215,-9.895 23.62,-13.233 8.941,-4.031 21.538,-7.754 30.896,-10.691 9.967,-3.127 23.258,-7.464 33.515,-9.441 11.326,-2.183 26.708,-3.645 38.236,-4.012 7.931,-0.252 18.511,1.371 26.434,0.944 2.78,-0.149 6.488,-0.574 9.205,-1.18 3.344,-0.746 7.861,-1.879 10.857,-3.541 3.475,-1.926 7.654,-5.433 10.103,-8.561 1.896,-2.423 3.83,-6.176 4.65,-9.141 0.657,-2.372 0.91,-5.733 0.642,-8.179 -0.136,-1.242 -1.123,-4.009 -1.123,-4.01 v 0 c 0.866,-0.914 2.167,-2.014 2.887,-3.047 0.948,-1.359 1.774,-3.439 2.405,-4.971 1.14,-2.764 2.612,-6.509 3.173,-9.445 0.917,-4.798 1.263,-11.423 0.651,-16.269 -0.442,-3.495 -1.618,-8.161 -3.254,-11.28 -2.211,-4.213 -6.444,-9.221 -10.195,-12.148 -4.935,-3.849 -12.774,-7.483 -18.872,-8.893 -3.3,-0.763 -11.279,-0.434 -11.28,-0.434"
       fill="none"
       stroke="#dd5d06"
       stroke-linecap="round"
       stroke-linejoin="round"
       stroke-opacity="0"
       stroke-width="10"
       id="path14" />
    <path
       d="m 789.1,202.81 c -0.316,0.049 10e-4,-0.22 1.189,1.535 l -2.377,-0.95 c 1.189,1.755 1.504,1.486 1.188,1.535 z"
       fill="#6fa022"
       id="path15" />
    <path
       d="m 789.36,202.61 c 5.717,1.438 12.234,-7.021 18.137,-10.43 l 2.385,4.185 c -5.198,2.918 -13.739,10.01 -21.041,8.751 z"
       fill="#6fa022"
       id="path16" />
    <path
       d="m 789.36,202.61 -0.519,2.506"
       fill="none"
       stroke="#6fa022"
       stroke-linecap="butt"
       stroke-linejoin="round"
       id="path17" />
    <path
       d="m 807.5,192.18 c 15.302,-8.721 30.392,-18.592 44.674,-28.94 l 2.826,3.901 c -14.378,10.415 -29.684,20.427 -45.115,29.224 z"
       fill="#6fa022"
       id="path18" />
    <path
       d="m 807.5,192.18 2.385,4.185"
       fill="none"
       stroke="#6fa022"
       stroke-linecap="butt"
       stroke-linejoin="round"
       id="path19" />
    <path
       d="m 852.17,163.24 c 4.647,-3.348 16.588,-6.943 18.879,-11.577 l 0.43,0.215 c -2.427,4.8 -12.283,12.202 -16.483,15.263 z"
       fill="#6fa022"
       id="path20" />
    <path
       d="m 852.17,163.24 2.826,3.901"
       fill="none"
       stroke="#6fa022"
       stroke-linecap="butt"
       stroke-linejoin="round"
       id="path21" />
    <path
       d="m 826.35,181.72 c 4.972,0.069 11.313,3.275 15.166,5.983 l -1.39,1.967 c -3.575,-2.539 -9.63,-4.4 -13.792,-4.373 z"
       fill="#6fa022"
       id="path22" />
    <path
       d="m 826.35,181.72 -0.016,3.577"
       fill="none"
       stroke="#6fa022"
       stroke-linecap="butt"
       stroke-linejoin="round"
       id="path23" />
    <path
       d="m 841.51,187.7 c 1.74,1.239 6.459,4.805 6.667,7.403 l -0.24,0.016 c -0.134,-2.439 -5.852,-4.072 -7.817,-5.452 z"
       fill="#6fa022"
       id="path24" />
    <path
       d="m 841.51,187.7 -1.39,1.967"
       fill="none"
       stroke="#6fa022"
       stroke-linecap="butt"
       stroke-linejoin="round"
       id="path25" />
    <path
       d="m 843.78,170.78 c 0.077,-0.4 1.054,-2.211 1.123,-2.304 l 1.587,1.451 c -0.303,0.314 -2.306,0.807 -2.228,0.853 z"
       fill="#6fa022"
       id="path26" />
    <path
       d="m 843.78,170.78 h 0.482"
       fill="none"
       stroke="#6fa022"
       stroke-linecap="butt"
       stroke-linejoin="round"
       id="path27" />
    <path
       d="m 844.91,168.48 c 1.255,-1.37 2.157,-2.848 2.724,-4.521 l 2.276,0.789 c -0.703,1.988 -2.07,3.711 -3.413,5.183 z"
       fill="#6fa022"
       id="path28" />
    <path
       d="m 844.91,168.48 1.587,1.451"
       fill="none"
       stroke="#6fa022"
       stroke-linecap="butt"
       stroke-linejoin="round"
       id="path29" />
    <path
       d="m 847.63,163.96 c 1.545,-4.336 1.85,-9.967 1.849,-14.808 h 0.241 c 0,4.823 1.856,10.665 0.186,15.597 z"
       fill="#6fa022"
       id="path30" />
    <path
       d="m 847.63,163.96 2.276,0.789"
       fill="none"
       stroke="#6fa022"
       stroke-linecap="butt"
       stroke-linejoin="round"
       id="path31" />
    <path
       d="m 887.68,296.1 c -2.428,-1.128 -5.197,-3.464 -7.425,-4.949 0,10e-4 -0.691,8.253 -1.718,11.625 -0.851,2.794 -2.399,6.466 -4.137,8.813 -1.773,2.395 -4.82,5.119 -7.374,6.655 -1.975,1.188 -4.926,2.288 -7.194,2.698 -2.177,0.393 -5.231,0.546 -7.375,0 -2.082,-0.531 -4.406,-2.392 -6.295,-3.418 0,10e-4 -1.268,3.899 -2.518,5.036 -1.49,1.356 -4.298,2.067 -6.295,2.339 -4.091,0.558 -9.866,-0.009 -13.669,-1.619 -3.779,-1.601 -7.978,-5.486 -10.611,-8.633 -2.264,-2.705 -4.067,-7.156 -5.756,-10.252 -3.212,-5.891 -6.708,-14.203 -10.432,-19.785 -3.021,-4.529 -7.497,-10.351 -11.511,-14.029 -3.432,-3.144 -8.7,-6.553 -12.77,-8.813 -1.817,-1.009 -4.371,-2.115 -6.317,-2.847 -2.037,-0.767 -4.8,-1.725 -6.941,-2.118 -2.921,-0.536 -6.918,-0.412 -9.882,-0.588 -0.002,-0.002 -10.294,-12.106 -14.706,-17.294 1.742,-1.417 3.93,-3.492 5.808,-4.724 7.324,-4.806 18.233,-9.269 26.282,-12.728 7.724,-3.319 18.215,-7.316 26.214,-9.902 7.426,-2.4 17.481,-5.152 25.106,-6.811 6.594,-1.436 15.471,-3.043 22.187,-3.698 5.407,-0.528 12.688,-1.057 18.1,-0.584 5.647,0.493 13.158,1.968 18.489,3.892 5.97,2.155 13.617,6.104 18.684,9.926 4.453,3.359 9.693,8.814 12.953,13.34 3.472,4.82 6.718,12.146 9.075,17.599 2.152,4.981 4.954,11.733 6.049,17.048 0.968,4.697 1.891,11.218 1.1,15.948 -0.707,4.231 -2.793,9.871 -5.5,13.199 -2.468,3.036 -7.013,6.182 -10.724,7.424 -2.586,0.866 -6.36,0.824 -9.074,0.55 -3.664,-0.371 -8.484,-1.747 -11.823,-3.3 M 734.75,238.921 Z"
       fill="#267d38"
       fill-rule="evenodd"
       id="path32" />
    <path
       d="m 880.26,291.15 v 0 c 2.228,1.485 4.997,3.821 7.425,4.949 3.339,1.553 8.159,2.929 11.823,3.3 2.714,0.274 6.488,0.316 9.074,-0.55 3.711,-1.242 8.256,-4.388 10.724,-7.424 2.707,-3.328 4.793,-8.968 5.5,-13.199 0.791,-4.73 -0.132,-11.251 -1.1,-15.948 -1.095,-5.315 -3.897,-12.067 -6.049,-17.048 -2.357,-5.453 -5.603,-12.779 -9.075,-17.599 -3.26,-4.526 -8.5,-9.981 -12.953,-13.34 -5.067,-3.822 -12.714,-7.771 -18.684,-9.926 -5.331,-1.924 -12.842,-3.399 -18.489,-3.892 -5.412,-0.473 -12.693,0.056 -18.1,0.584 -6.716,0.655 -15.593,2.262 -22.187,3.698 -7.625,1.659 -17.68,4.411 -25.106,6.811 -7.999,2.586 -18.49,6.583 -26.214,9.902 -8.049,3.459 -18.958,7.922 -26.282,12.728 -1.878,1.232 -4.066,3.307 -5.808,4.724 v 0 c 4.412,5.188 14.704,17.292 14.706,17.294 v 0 c 2.964,0.176 6.961,0.052 9.882,0.588 2.141,0.393 4.904,1.351 6.941,2.118 1.946,0.732 4.5,1.838 6.317,2.847 4.07,2.26 9.338,5.669 12.77,8.813 4.014,3.678 8.49,9.5 11.511,14.029 3.724,5.582 7.22,13.894 10.432,19.785 1.689,3.096 3.492,7.547 5.756,10.252 2.633,3.147 6.832,7.032 10.611,8.633 3.803,1.61 9.578,2.177 13.669,1.619 1.997,-0.272 4.805,-0.983 6.295,-2.339 1.25,-1.137 2.518,-5.035 2.518,-5.036 v 0 c 1.889,1.026 4.213,2.887 6.295,3.418 2.144,0.546 5.198,0.393 7.375,0 2.268,-0.41 5.219,-1.51 7.194,-2.698 2.554,-1.536 5.601,-4.26 7.374,-6.655 1.738,-2.347 3.286,-6.019 4.137,-8.813 1.027,-3.372 1.718,-11.624 1.718,-11.625"
       fill="none"
       stroke="#dd5d06"
       stroke-linecap="round"
       stroke-linejoin="round"
       stroke-opacity="0"
       stroke-width="10"
       id="path33" />
    <path
       d="m 749.72,242.67 c 0.343,-0.462 0.695,-0.711 1.224,0 h -1.484 c 0.529,0.71 0.88,0.461 1.223,0 z"
       fill="#115920"
       id="path34" />
    <path
       d="m 750.18,241.93 c 32.237,-1.146 63.776,-11.75 94.734,6.951 l -2.511,4.11 c -29.18,-18.051 -59.752,-10.741 -92.17,-9.578 z"
       fill="#115920"
       id="path35" />
    <path
       d="m 750.18,241.93 0.053,1.483"
       fill="none"
       stroke="#115920"
       stroke-linecap="butt"
       stroke-linejoin="round"
       id="path36" />
    <path
       d="m 844.91,248.88 c 5.428,3.383 6.622,9.293 10.612,13.281 l -0.341,0.341 c -4.025,-4.027 -8.181,-6.767 -12.782,-9.512 z"
       fill="#115920"
       id="path37" />
    <path
       d="m 844.91,248.88 -2.511,4.11"
       fill="none"
       stroke="#115920"
       stroke-linecap="butt"
       stroke-linejoin="round"
       id="path38" />
    <path
       d="m 816.01,241.26 c 0.247,-0.629 0.458,-3.07 3.04,-2.462 l -2.157,1.072 c 1.845,-0.874 1.746,1.116 1.387,2.195 z"
       fill="#115920"
       id="path39" />
    <path
       d="m 817.22,238.39 c 2.793,-2.234 6.59,-3.615 9.999,-4.534 l 0.626,2.326 c -3.31,0.89 -6.673,2.084 -9.111,4.08 z"
       fill="#115920"
       id="path40" />
    <path
       d="m 817.22,238.39 1.514,1.872"
       fill="none"
       stroke="#115920"
       stroke-linecap="butt"
       stroke-linejoin="round"
       id="path41" />
    <path
       d="m 827.21,233.86 c 9.003,-2.401 20.287,-0.463 28.917,2.115 l -0.069,0.231 c -8.602,-2.572 -19.664,-2.346 -28.222,-0.02 z"
       fill="#115920"
       id="path42" />
    <path
       d="m 827.21,233.86 0.626,2.326"
       fill="none"
       stroke="#115920"
       stroke-linecap="butt"
       stroke-linejoin="round"
       id="path43" />
    <clipPath
       id="a">
      <path
         d="m 345.32,632.38 c 0.018,-6.006 3.077,-13.722 5.267,-19.314 4.441,-11.34 13.656,-24.921 19.315,-35.703 4.854,-9.248 11.008,-21.742 15.803,-31.021 3.822,-7.395 8.383,-17.573 12.876,-24.582 5.403,-8.426 14.053,-18.668 20.485,-26.338 5.836,-6.958 14.197,-15.731 20.276,-22.478 5.746,-6.378 13.696,-14.634 19.142,-21.269 5.495,-6.695 12.518,-15.895 17.281,-23.13 5.461,-8.295 11.86,-19.921 16.483,-28.712 4.059,-7.718 8.655,-18.417 12.593,-26.198 2.348,-4.641 5.102,-11.083 8.113,-15.325 3.522,-4.961 9.372,-10.696 13.851,-14.814 4.851,-4.461 12.004,-9.616 17.265,-13.585 6.02,-4.542 14.597,-9.876 20.378,-14.718 4.262,-3.569 9.92,-8.471 13.37,-12.83 2.617,-3.306 5.539,-8.191 7.232,-12.053 1.814,-4.14 2.719,-10.199 4.218,-14.463 1.602,-4.556 3.619,-10.766 6.166,-14.868 4.275,-6.882 12.046,-14.667 18.13,-20.018 6.726,-5.915 16.839,-12.437 24.55,-16.996 6.979,-4.126 16.284,-10.212 24.172,-12.086 8.378,-1.99 20.226,-1.506 28.705,0 7.234,1.285 16.505,4.949 23.039,8.309 6.736,3.464 14.855,9.624 20.773,14.353 8.582,6.856 19.807,16.471 26.816,24.927 6.216,7.499 13.535,18.47 17.395,27.412 3.696,8.561 6.913,20.819 7.72,30.109 0.784,9.025 -0.175,21.306 -2.316,30.109 -2.109,8.673 -6.951,19.775 -11.58,27.407 -4.437,7.315 -12.044,16.003 -18.143,22.003 -9.348,9.196 -24.057,18.907 -34.423,26.938 -8.452,6.549 -19.773,15.214 -28.274,21.699 -8.955,6.831 -20.896,15.94 -29.917,22.685 -6.955,5.2 -16.117,12.295 -23.294,17.184 -7.212,4.912 -17.027,11.192 -24.64,15.456 -5.638,3.157 -13.352,7.027 -19.265,9.632 -3.563,1.57 -8.609,2.971 -12.096,4.704 -2.322,1.154 -5.464,2.746 -7.392,4.48 -1.7,1.528 -3.327,4.172 -4.646,6.039 -2.64,3.737 -5.547,9.133 -8.214,12.851 -3.214,4.478 -7.743,10.3 -11.527,14.308 -6.277,6.65 -15.705,14.46 -22.767,20.27 -5.941,4.888 -14.054,11.191 -20.403,15.537 -9.133,6.25 -21.952,13.604 -31.531,19.147 -7.898,4.57 -18.544,10.466 -26.63,14.692 -5.249,2.744 -12.339,6.225 -17.681,8.783 -5.965,2.856 -13.901,6.721 -20.021,9.228 -4.711,1.931 -11.09,4.285 -15.954,5.788 -3.937,1.216 -9.259,2.616 -13.296,3.441 -3.023,0.618 -7.085,1.408 -10.167,1.564 -3.473,0.176 -8.158,0.018 -11.575,-0.626 -2.421,-0.456 -5.658,-1.323 -7.821,-2.502 -0.939,-0.513 -2.044,-1.448 -2.815,-2.19 -0.914,-0.88 -1.897,-2.273 -2.71,-3.248 0.007,-0.011 -2.325,-6.912 -2.316,-9.988 z"
         fill="#f68026"
         fill-rule="evenodd"
         id="path44" />
    </clipPath>
    <path
       d="m 350.57228,625.24937 c 0.018,-6.006 3.077,-13.722 5.267,-19.314 4.441,-11.34 13.656,-24.921 19.315,-35.703 4.854,-9.248 11.008,-21.742 15.803,-31.021 3.822,-7.395 8.383,-17.573 12.876,-24.582 5.403,-8.426 14.053,-18.668 20.485,-26.338 5.836,-6.958 14.197,-15.731 20.276,-22.478 5.746,-6.378 13.696,-14.634 19.142,-21.269 5.495,-6.695 12.518,-15.895 17.281,-23.13 5.461,-8.295 11.86,-19.921 16.483,-28.712 4.059,-7.718 8.655,-18.417 12.593,-26.198 2.348,-4.641 5.102,-11.083 8.113,-15.325 3.522,-4.961 9.372,-10.696 13.851,-14.814 4.851,-4.461 12.004,-9.616 17.265,-13.585 6.02,-4.542 14.597,-9.876 20.378,-14.718 4.262,-3.569 9.92,-8.471 13.37,-12.83 2.617,-3.306 5.539,-8.191 7.232,-12.053 1.814,-4.14 2.719,-10.199 4.218,-14.463 1.602,-4.556 3.619,-10.766 6.166,-14.868 4.275,-6.882 12.046,-14.667 18.13,-20.018 6.726,-5.915 16.839,-12.437 24.55,-16.996 6.979,-4.126 16.284,-10.212 24.172,-12.086 8.378,-1.99 20.226,-1.506 28.705,0 7.234,1.285 16.505,4.949 23.039,8.309 6.736,3.464 14.855,9.624 20.773,14.353 8.582,6.856 19.807,16.471 26.816,24.927 6.216,7.499 13.535,18.47 17.395,27.412 3.696,8.561 6.913,20.819 7.72,30.109 0.784,9.025 -0.175,21.306 -2.316,30.109 -2.109,8.673 -6.951,19.775 -11.58,27.407 -4.437,7.315 -12.044,16.003 -18.143,22.003 -9.348,9.196 -24.057,18.907 -34.423,26.938 -8.452,6.549 -19.773,15.214 -28.274,21.699 -8.955,6.831 -20.896,15.94 -29.917,22.685 -6.955,5.2 -16.117,12.295 -23.294,17.184 -7.212,4.912 -17.027,11.192 -24.64,15.456 -5.638,3.157 -13.352,7.027 -19.265,9.632 -3.563,1.57 -8.609,2.971 -12.096,4.704 -2.322,1.154 -5.464,2.746 -7.392,4.48 -1.7,1.528 -3.327,4.172 -4.646,6.039 -2.64,3.737 -5.547,9.133 -8.214,12.851 -3.214,4.478 -7.743,10.3 -11.527,14.308 -6.277,6.65 -15.705,14.46 -22.767,20.27 -5.941,4.888 -14.054,11.191 -20.403,15.537 -9.133,6.25 -21.952,13.604 -31.531,19.147 -7.898,4.57 -18.544,10.466 -26.63,14.692 -5.249,2.744 -12.339,6.225 -17.681,8.783 -5.965,2.856 -13.901,6.721 -20.021,9.228 -4.711,1.931 -11.09,4.285 -15.954,5.788 -3.937,1.216 -9.259,2.616 -13.296,3.441 -3.023,0.618 -7.085,1.408 -10.167,1.564 -3.473,0.176 -8.158,0.018 -11.575,-0.626 -2.421,-0.456 -5.658,-1.323 -7.821,-2.502 -0.939,-0.513 -2.044,-1.448 -2.815,-2.19 -0.914,-0.88 -1.897,-2.273 -2.71,-3.248 v 0 c 0.007,-0.011 -2.325,-6.912 -2.316,-9.988 z"
       fill="#f68026"
       fill-rule="evenodd"
       stroke="#000000"
       stroke-linecap="round"
       stroke-linejoin="round"
       stroke-opacity="0"
       stroke-width="5"
       id="path45" />
    <path
       d="m 768.16,381.79 c 0.859,-11.835 -1.289,-19.912 -7.439,-30.194 l 7.395,-4.405 c 6.552,11.041 10.487,21.809 9.655,35.242 z"
       clip-path="url(#a)"
       fill="#dd5d06"
       id="path46" />
    <path
       d="m 760.72,351.6 c -5.256,-8.883 -4.897,-21.507 -11.599,-28.596 6.702,7.089 14.206,16.212 18.994,24.191 z"
       clip-path="url(#a)"
       fill="#dd5d06"
       id="path47" />
    <path
       d="m 760.72,351.6 7.395,-4.405"
       clip-path="url(#a)"
       fill="none"
       stroke="#dd5d06"
       stroke-linecap="butt"
       stroke-linejoin="round"
       id="path48" />
    <path
       d="m 753.42,406.92 c 0.203,-7.221 -4.709,-15.192 -7.885,-23.496 l 9.006,-3.418 c 2.806,7.456 8.307,16.92 8.511,26.914 z"
       clip-path="url(#a)"
       fill="#dd5d06"
       id="path49" />
    <path
       d="m 753.42,406.92 h 9.632"
       clip-path="url(#a)"
       fill="none"
       stroke="#dd5d06"
       stroke-linecap="butt"
       stroke-linejoin="round"
       id="path50" />
    <path
       d="m 745.54,383.43 c -5.317,-14.05 -13.131,-27.788 -21.687,-40.312 l 7.955,-5.431 c 8.78,12.866 17.122,27.572 22.738,42.325 z"
       clip-path="url(#a)"
       fill="#dd5d06"
       id="path51" />
    <path
       d="m 745.54,383.43 9.006,-3.418"
       clip-path="url(#a)"
       fill="none"
       stroke="#dd5d06"
       stroke-linecap="butt"
       stroke-linejoin="round"
       id="path52" />
    <path
       d="m 723.85,343.12 c -7.553,-11.098 -8.881,-25.764 -18.518,-34.706 9.637,8.942 19.377,18.916 26.473,29.275 z"
       clip-path="url(#a)"
       fill="#dd5d06"
       id="path53" />
    <path
       d="m 723.85,343.12 7.955,-5.431"
       clip-path="url(#a)"
       fill="none"
       stroke="#dd5d06"
       stroke-linecap="butt"
       stroke-linejoin="round"
       id="path54" />
    <path
       d="m 693.25,447.43 c 1.389,-12.169 1.916,-21.763 -2.726,-32.709 l 8.468,-3.521 c 5.154,12.608 5.256,24.731 3.828,37.319 z"
       clip-path="url(#a)"
       fill="#dd5d06"
       id="path55" />
    <path
       d="m 693.25,447.43 9.57,1.089"
       clip-path="url(#a)"
       fill="none"
       stroke="#dd5d06"
       stroke-linecap="butt"
       stroke-linejoin="round"
       id="path56" />
    <path
       d="m 690.53,414.72 c -3.8,-9.149 -3.856,-23.754 -12.557,-28.775 8.701,5.021 17.364,16.46 21.025,25.253 z"
       clip-path="url(#a)"
       fill="#dd5d06"
       id="path57" />
    <path
       d="m 690.53,414.72 8.468,-3.522"
       clip-path="url(#a)"
       fill="none"
       stroke="#dd5d06"
       stroke-linecap="butt"
       stroke-linejoin="round"
       id="path58" />
    <path
       d="m 645.96,485.87 c -3.895,-8.059 -4.504,-17.94 -7.198,-24.733 l 8.987,-3.467 c 3.149,8.352 3.673,17.854 6.827,23.892 z"
       clip-path="url(#a)"
       fill="#dd5d06"
       id="path59" />
    <path
       d="m 645.96,485.87 8.616,-4.308"
       clip-path="url(#a)"
       fill="none"
       stroke="#dd5d06"
       stroke-linecap="butt"
       stroke-linejoin="round"
       id="path60" />
    <path
       d="m 638.76,461.13 c -5.039,-13.186 -10.801,-29.479 -20.439,-40.189 9.638,10.71 23.835,22.353 29.426,36.722 z"
       clip-path="url(#a)"
       fill="#dd5d06"
       id="path61" />
    <path
       d="m 638.76,461.13 8.987,-3.467"
       clip-path="url(#a)"
       fill="none"
       stroke="#dd5d06"
       stroke-linecap="butt"
       stroke-linejoin="round"
       id="path62" />
    <path
       d="m 578.21,520.88 c 0.716,-7.958 -0.254,-16.256 -5.656,-22.272 l 5.319,-4.661 c 6.34,7.381 10.633,17.966 9.939,27.698 z"
       clip-path="url(#a)"
       fill="#dd5d06"
       id="path63" />
    <path
       d="m 578.21,520.88 9.602,0.765"
       clip-path="url(#a)"
       fill="none"
       stroke="#dd5d06"
       stroke-linecap="butt"
       stroke-linejoin="round"
       id="path64" />
    <path
       d="m 572.56,498.61 c -3.599,-4.203 -3.886,-11.608 -7.899,-13.468 l 0.844,-1.732 c 4.651,2.361 9.555,7.419 12.374,10.539 z"
       clip-path="url(#a)"
       fill="#dd5d06"
       id="path65" />
    <path
       d="m 572.56,498.61 5.319,-4.661"
       clip-path="url(#a)"
       fill="none"
       stroke="#dd5d06"
       stroke-linecap="butt"
       stroke-linejoin="round"
       id="path66" />
    <path
       d="m 534.21,576.23 c -7.899,-8.012 -12.764,-18.401 -19.121,-25.757 l 7.319,-6.262 c 7.168,8.452 11.836,18.544 18.613,25.208 z"
       clip-path="url(#a)"
       fill="#dd5d06"
       id="path67" />
    <path
       d="m 534.21,576.23 6.811,-6.811"
       clip-path="url(#a)"
       fill="none"
       stroke="#dd5d06"
       stroke-linecap="butt"
       stroke-linejoin="round"
       id="path68" />
    <path
       d="m 515.09,550.47 c -3.225,-3.792 -2.483,-10.114 -7.129,-9.752 l -0.095,-1.924 c 5.632,-0.146 11.791,2.22 14.543,5.414 z"
       clip-path="url(#a)"
       fill="#dd5d06"
       id="path69" />
    <path
       d="m 515.09,550.47 7.319,-6.262"
       clip-path="url(#a)"
       fill="none"
       stroke="#dd5d06"
       stroke-linecap="butt"
       stroke-linejoin="round"
       id="path70" />
    <path
       d="m 423.52,636.15 c 0.151,-13.935 -6.669,-25.754 -12.575,-39.493 l 8.852,-3.8 c 5.691,13.274 13.203,26.961 13.355,43.293 z"
       clip-path="url(#a)"
       fill="#dd5d06"
       id="path71" />
    <path
       d="m 423.52,636.15 h 9.632"
       clip-path="url(#a)"
       fill="none"
       stroke="#dd5d06"
       stroke-linecap="butt"
       stroke-linejoin="round"
       id="path72" />
    <path
       d="m 410.94,596.66 c -1.683,-3.973 -2.896,-13.547 -7.829,-13.346 v -1.926 c 6.113,0.201 14.612,6.706 16.681,11.472 z"
       clip-path="url(#a)"
       fill="#dd5d06"
       id="path73" />
    <path
       d="m 410.94,596.66 8.852,-3.8"
       clip-path="url(#a)"
       fill="none"
       stroke="#dd5d06"
       stroke-linecap="butt"
       stroke-linejoin="round"
       id="path74" />
    <path
       d="m 390.83,516.74 c 7.093,7.398 21.014,10.863 31.161,19.358 l -6.268,7.314 c -8.117,-7.159 -22.3,-10.758 -31.705,-19.861 z"
       clip-path="url(#a)"
       fill="#dd5d06"
       id="path75" />
    <path
       d="m 390.83,516.74 -6.812,6.811"
       clip-path="url(#a)"
       fill="none"
       stroke="#dd5d06"
       stroke-linecap="butt"
       stroke-linejoin="round"
       id="path76" />
    <path
       d="m 421.99,536.09 c 17.035,14.718 27.355,40.724 36.909,59.836 l -1.723,0.862 c -9.529,-19.064 -25.709,-40.01 -41.454,-53.384 z"
       clip-path="url(#a)"
       fill="#dd5d06"
       id="path77" />
    <path
       d="m 421.99,536.09 -6.268,7.314"
       clip-path="url(#a)"
       fill="none"
       stroke="#dd5d06"
       stroke-linecap="butt"
       stroke-linejoin="round"
       id="path78" />
    <path
       d="m 444.45,455.05 c 16.006,10.693 29.911,23.947 42.714,37.895 l -7.097,6.513 c -12.585,-13.718 -25.628,-26.193 -40.96,-36.394 z"
       clip-path="url(#a)"
       fill="#dd5d06"
       id="path79" />
    <path
       d="m 444.45,455.05 -5.343,8.014"
       clip-path="url(#a)"
       fill="none"
       stroke="#dd5d06"
       stroke-linecap="butt"
       stroke-linejoin="round"
       id="path80" />
    <path
       d="m 487.17,492.94 c 5.455,5.994 6.445,15.463 11.862,20.319 l -1.288,1.432 c -5.64,-5.093 -12.93,-10.121 -17.671,-15.238 z"
       clip-path="url(#a)"
       fill="#dd5d06"
       id="path81" />
    <path
       d="m 487.17,492.94 -7.097,6.513"
       clip-path="url(#a)"
       fill="none"
       stroke="#dd5d06"
       stroke-linecap="butt"
       stroke-linejoin="round"
       id="path82" />
    <path
       d="m 476.3,395.48 c 21.891,10.963 49.704,20.104 67.033,41.056 l -7.472,6.079 c -15.183,-19.004 -41.268,-27.237 -63.868,-38.52 z"
       clip-path="url(#a)"
       fill="#dd5d06"
       id="path83" />
    <path
       d="m 476.3,395.48 -4.307,8.615"
       clip-path="url(#a)"
       fill="none"
       stroke="#dd5d06"
       stroke-linecap="butt"
       stroke-linejoin="round"
       id="path84" />
    <path
       d="m 543.33,436.53 c 2.811,3.479 9.702,15.713 9.361,21.415 l -1.918,-0.182 c 0.625,-4.499 -11.59,-11.093 -14.915,-15.154 z"
       clip-path="url(#a)"
       fill="#dd5d06"
       id="path85" />
    <path
       d="m 543.33,436.53 -7.472,6.079"
       clip-path="url(#a)"
       fill="none"
       stroke="#dd5d06"
       stroke-linecap="butt"
       stroke-linejoin="round"
       id="path86" />
    <path
       d="m 520.04,329.26 c 25.821,0.409 51.73,23.244 66.374,40.532 l -6.534,5.526 c -14.102,-16.705 -37.905,-36.835 -59.84,-36.426 z"
       clip-path="url(#a)"
       fill="#dd5d06"
       id="path87" />
    <path
       d="m 520.04,329.26 v 9.632"
       clip-path="url(#a)"
       fill="none"
       stroke="#dd5d06"
       stroke-linecap="butt"
       stroke-linejoin="round"
       id="path88" />
    <path
       d="m 586.42,369.8 c 4.038,5.052 2.243,12.971 5.512,16.159 l -1.362,1.362 c -3.652,-3.734 -7.954,-9.043 -10.684,-11.995 z"
       clip-path="url(#a)"
       fill="#dd5d06"
       id="path89" />
    <path
       d="m 586.42,369.8 -6.534,5.526"
       clip-path="url(#a)"
       fill="none"
       stroke="#dd5d06"
       stroke-linecap="butt"
       stroke-linejoin="round"
       id="path90" />
    <path
       d="m 570.34,294.79 c 6.804,0.321 13.189,4.776 17.229,6.134 l -3.213,9.081 c -5.504,-2.019 -10.667,-5.903 -14.016,-5.582 z"
       clip-path="url(#a)"
       fill="#dd5d06"
       id="path91" />
    <path
       d="m 570.34,294.79 v 9.633"
       clip-path="url(#a)"
       fill="none"
       stroke="#dd5d06"
       stroke-linecap="butt"
       stroke-linejoin="round"
       id="path92" />
    <path
       d="m 587.57,300.93 c 20.705,7.415 43.05,25.125 57.826,40.567 l -6.964,6.655 c -14.24,-14.924 -35.01,-31.487 -54.075,-38.141 z"
       clip-path="url(#a)"
       fill="#dd5d06"
       id="path93" />
    <path
       d="m 587.57,300.93 -3.213,9.081"
       clip-path="url(#a)"
       fill="none"
       stroke="#dd5d06"
       stroke-linecap="butt"
       stroke-linejoin="round"
       id="path94" />
    <path
       d="m 645.4,341.49 c 3.57,3.832 11.1,13.035 13.436,18.799 l -1.795,0.699 c -1.88,-5.078 -13.838,-7.951 -18.605,-12.843 z"
       clip-path="url(#a)"
       fill="#dd5d06"
       id="path95" />
    <path
       d="m 645.4,341.49 -6.964,6.655"
       clip-path="url(#a)"
       fill="none"
       stroke="#dd5d06"
       stroke-linecap="butt"
       stroke-linejoin="round"
       id="path96" />
    <path
       d="m 601.99,233.19 c 20.721,0.007 44.882,3.221 59.904,21.297 l -6.822,5.5 c -12.326,-15.845 -32.87,-17.171 -53.082,-17.164 z"
       clip-path="url(#a)"
       fill="#dd5d06"
       id="path97" />
    <path
       d="m 601.99,233.19 v 9.633"
       clip-path="url(#a)"
       fill="none"
       stroke="#dd5d06"
       stroke-linecap="butt"
       stroke-linejoin="round"
       id="path98" />
    <path
       d="m 661.89,254.49 c 2.812,3.488 6.401,13.669 6.043,18.652 l -1.917,-0.189 c 0.526,-3.986 -8.193,-9.545 -10.948,-12.963 z"
       clip-path="url(#a)"
       fill="#dd5d06"
       id="path99" />
    <path
       d="m 661.89,254.49 -6.822,5.5"
       clip-path="url(#a)"
       fill="none"
       stroke="#dd5d06"
       stroke-linecap="butt"
       stroke-linejoin="round"
       id="path100" />
    <path
       d="m 769.99,294.82 c 2.414,-7.48 4.124,-17.87 5.891,-25.528 0.002,0.003 12.436,24.794 14.728,36.329 2.756,13.867 3.887,33.535 0,47.129 -4.806,16.812 -19.775,36.048 -31.42,49.093 -28.405,31.82 -76.894,63.557 -112.91,86.404 -18.027,11.434 -43.988,23.368 -62.84,33.383 -0.006,0.007 -39.303,51.604 -60.875,68.73 -29.719,23.595 -76.013,46.673 -111.93,58.912 -11.1,3.782 -26.6,8.757 -38.293,7.855 -7.949,-0.614 -17.568,-6.122 -25.097,-8.746 21.963,-8.864 52.316,-18.392 73.208,-29.547 33.229,-17.743 77.025,-44.486 103.1,-71.676 9.386,-9.789 15.69,-27.975 25.528,-37.31 10.737,-10.188 29.661,-17.696 42.22,-25.529 23.502,-14.657 56.058,-32.624 77.567,-50.075 23.777,-19.291 54.617,-47.231 71.676,-72.657 12.198,-18.18 22.731,-45.932 29.456,-66.767 m -422.75,353.56 z"
       clip-path="url(#a)"
       fill="#793504"
       fill-opacity="0.3098"
       fill-rule="evenodd"
       id="path101" />
    <path
       d="m 775.88,269.29 v 0 c -1.767,7.658 -3.477,18.048 -5.891,25.528 -6.725,20.835 -17.258,48.587 -29.456,66.767 -17.059,25.426 -47.899,53.366 -71.676,72.657 -21.509,17.451 -54.065,35.418 -77.567,50.075 -12.559,7.833 -31.483,15.341 -42.22,25.529 -9.838,9.335 -16.142,27.521 -25.528,37.31 -26.071,27.19 -69.867,53.933 -103.1,71.676 -20.892,11.155 -51.245,20.683 -73.208,29.547 v 0 c 7.529,2.624 17.148,8.132 25.097,8.746 11.693,0.902 27.193,-4.073 38.293,-7.855 35.919,-12.239 82.213,-35.317 111.93,-58.912 21.572,-17.126 60.869,-68.723 60.875,-68.73 v 0 c 18.852,-10.015 44.813,-21.949 62.84,-33.383 36.019,-22.847 84.508,-54.584 112.91,-86.404 11.645,-13.045 26.614,-32.281 31.42,-49.093 3.887,-13.594 2.756,-33.262 0,-47.129 -2.292,-11.535 -14.726,-36.326 -14.728,-36.329"
       clip-path="url(#a)"
       fill="none"
       stroke="#dd5d06"
       stroke-linecap="round"
       stroke-linejoin="round"
       stroke-opacity="0"
       stroke-width="10"
       id="path102" />
    <path
       d="m 358.3,619.89 c 11.189,-17.386 29.959,-37.814 42.639,-54.144 11.503,-14.816 25.277,-35.872 38.013,-49.642 13.076,-14.137 36.329,-27.379 47.792,-42.852 15.151,-20.452 19.093,-57.374 34.879,-77.34 16.704,-21.128 54.343,-33.646 71.274,-54.593 8.824,-10.918 12.439,-30.757 21.23,-41.703 13.568,-16.893 38.497,-32.965 56.625,-44.834 16.976,-11.114 41.754,-22.317 59.649,-31.881 v 0 c -7.405,-4.628 -16.342,-12.842 -24.683,-15.426 -11.202,-3.471 -27.607,-3.463 -39.079,-1.029 -9.318,1.977 -20.53,8.639 -28.796,13.37 -15.751,9.014 -39.317,19.853 -49.365,34.966 -7.042,10.593 -3.523,30.361 -10.284,41.136 -11.807,18.819 -43.832,28.671 -58.62,45.251 -11.341,12.716 -21.476,33.482 -29.824,48.336 -6.016,10.706 -11.621,26.376 -18.675,36.429 -11.56,16.474 -33.646,32.879 -46.416,48.434 -12.043,14.669 -27.096,35.212 -36.325,51.797 -5.361,9.632 -9.887,23.765 -14.799,33.634 -7.328,14.723 -21.835,32.117 -26.908,47.761 -2.486,7.666 -4.462,18.572 -3.747,26.599 0.262,2.941 1.893,6.623 2.704,9.462 v 0 c -0.075,0.052 8.345,-16.939 12.716,-23.731 z"
       clip-path="url(#a)"
       fill="#ffffff"
       fill-opacity="0.1451"
       fill-rule="evenodd"
       stroke="#dd5d06"
       stroke-linecap="round"
       stroke-linejoin="round"
       stroke-opacity="0"
       stroke-width="10"
       id="path103"
       transform="translate(-10.504578,-26.145623)" />
  </g>
</svg>
